<svg width="38" height="34" viewBox="0 0 38 34" fill="none" xmlns="http://www.w3.org/2000/svg">
<g clip-path="url(#clip0_1063_1105)">
<path d="M0 30.348V25.4991H0.433463C5.1113 25.4991 9.78914 25.4991 14.467 25.4991C18.1985 25.4991 21.2973 22.8003 22.1434 18.8387C23.1353 14.2191 20.228 9.4481 15.9519 8.66682C15.8666 8.65167 15.7793 8.65383 15.6602 8.64517V12.1447L8.96883 6.06325L15.6305 0.00341797V3.64473C16.2683 3.77783 16.8753 3.87846 17.4715 4.03104C22.4756 5.31659 26.2875 10.1493 26.727 15.7525C27.2646 22.5925 23.2037 28.621 17.0588 30.058C16.2364 30.2488 15.3981 30.3467 14.5572 30.3502C9.7812 30.3773 5.00417 30.3632 0.227145 30.3632C0.16763 30.3589 0.10415 30.3534 0 30.348Z" fill="#023047"/>
<path d="M31.2494 30.3675H22.352L22.3242 30.2961C22.4998 30.1641 22.6773 30.0342 22.8509 29.899C24.2729 28.812 25.4995 27.4489 26.4694 25.8778C26.6529 25.5759 26.8463 25.4872 27.1637 25.4926C28.3759 25.511 29.588 25.5002 30.8001 25.5002H31.2296V21.8416L38.0013 27.9306L31.2514 34.0002L31.2494 30.3675Z" fill="#023047"/>
<path d="M6.48714 6.96436L9.9489 10.1144C6.1251 13.1919 5.61129 19.2214 9.03437 23.0435C8.93022 23.0543 8.85086 23.0684 8.77151 23.0684C7.16363 23.0684 5.55673 23.0684 3.94885 23.0684C3.76138 23.0684 3.64335 23.0337 3.54515 22.8227C1.11002 17.5885 2.30229 10.9076 6.3701 7.05092C6.39788 7.02387 6.4306 7.00764 6.48714 6.96436Z" fill="#023047"/>
</g>
<defs>
<clipPath id="clip0_1063_1105">
<rect width="38" height="34" fill="white"/>
</clipPath>
</defs>
</svg>
