<svg width="49" height="49" viewBox="0 0 49 49" fill="none" xmlns="http://www.w3.org/2000/svg">
<path d="M16.9382 24.5L21.9794 29.5412L32.0618 19.4588M14.001 6.09206C15.8096 5.94773 17.5266 5.23653 18.9076 4.05969C22.1301 1.31344 26.8699 1.31344 30.0924 4.05969C31.4734 5.23653 33.1904 5.94774 34.999 6.09206C39.2196 6.42887 42.5711 9.78038 42.9079 14.001C43.0523 15.8096 43.7635 17.5266 44.9403 18.9076C47.6866 22.1301 47.6866 26.8699 44.9403 30.0924C43.7635 31.4734 43.0523 33.1904 42.9079 34.999C42.5711 39.2196 39.2196 42.5711 34.999 42.9079C33.1904 43.0523 31.4734 43.7635 30.0924 44.9403C26.8699 47.6866 22.1301 47.6866 18.9076 44.9403C17.5266 43.7635 15.8096 43.0523 14.001 42.9079C9.78038 42.5711 6.42887 39.2196 6.09206 34.999C5.94773 33.1904 5.23653 31.4734 4.05969 30.0924C1.31344 26.8699 1.31344 22.1301 4.05969 18.9076C5.23653 17.5266 5.94774 15.8096 6.09206 14.001C6.42887 9.78038 9.78038 6.42887 14.001 6.09206Z" stroke="#023047" stroke-width="3" stroke-linecap="round" stroke-linejoin="round"/>
</svg>
