<svg width="48" height="43" viewBox="0 0 48 43" fill="none" xmlns="http://www.w3.org/2000/svg">
<path d="M40.8943 41H6.86179C4.1767 41 2 38.8174 2 36.125L2 6.875C2 4.18261 4.1767 2 6.86179 2L31.1707 2C33.8558 2 36.0325 4.18261 36.0325 6.875V9.3125M40.8943 41C38.2092 41 36.0325 38.8174 36.0325 36.125L36.0325 9.3125M40.8943 41C43.5794 41 45.7561 38.8174 45.7561 36.125V14.1875C45.7561 11.4951 43.5794 9.3125 40.8943 9.3125L36.0325 9.3125M26.3089 2L16.5854 2M11.7236 31.25H26.3089M11.7236 11.75H26.3089V21.5H11.7236V11.75Z" stroke="#023047" stroke-width="3" stroke-linecap="round" stroke-linejoin="round"/>
</svg>
